<svg width="480" height="81" viewBox="0 0 480 81" fill="none" xmlns="http://www.w3.org/2000/svg">
<path fill-rule="evenodd" clip-rule="evenodd" d="M11.1557 51.1557C14.0599 51.1557 16.6927 49.9939 18.6148 48.1097C20.5368 49.9939 23.1696 51.1557 26.0738 51.1557C29.1989 51.1557 32.0099 49.8104 33.959 47.6672C35.9082 49.8104 38.7191 51.1557 41.8443 51.1557C47.7293 51.1557 52.5 46.385 52.5 40.5C52.5 34.615 47.7293 29.8442 41.8443 29.8442C38.7191 29.8442 35.9082 31.1896 33.959 33.3327C32.0099 31.1896 29.1989 29.8442 26.0738 29.8442C23.1696 29.8442 20.5368 31.0061 18.6148 32.8903C16.6927 31.0061 14.0599 29.8442 11.1557 29.8442C5.27074 29.8442 0.5 34.615 0.5 40.5C0.5 46.385 5.27074 51.1557 11.1557 51.1557Z" fill="#B5CAFF"/>
<path d="M168.941 4.54V13.86H167.301V4.54H168.941ZM158.361 7.04V11.82C159.321 11.8 160.301 11.76 161.281 11.7V7.04H158.361ZM165.501 11.36L165.581 12.56C162.021 13.1 157.841 13.22 154.681 13.24L154.521 11.88C155.221 11.88 155.981 11.88 156.761 11.86V7.04H155.001V5.74H164.621V7.04H162.861V11.6C163.761 11.54 164.641 11.44 165.501 11.36ZM158.901 20.98H169.621V22.28H157.281V17.8H167.321V16H157.221V14.72H168.941V19.02H158.901V20.98ZM177.919 14.6V18.82H182.919V14.6C182.159 14.78 181.299 14.88 180.399 14.88C179.519 14.88 178.659 14.78 177.919 14.6ZM180.399 6.96C177.519 6.96 175.459 8.28 175.459 10.28C175.459 12.28 177.519 13.6 180.399 13.6C183.279 13.6 185.359 12.28 185.359 10.28C185.359 8.28 183.279 6.96 180.399 6.96ZM184.559 18.82H188.579V20.18H172.279V18.82H176.279V13.98C174.779 13.2 173.879 11.9 173.879 10.28C173.879 7.48 176.599 5.68 180.399 5.68C184.219 5.68 186.919 7.48 186.919 10.28C186.919 11.9 186.039 13.18 184.559 13.96V18.82ZM201.038 6.74V8.06H190.458V6.74H194.918V4.54H196.558V6.74H201.038ZM193.018 12.38C193.018 13.64 194.118 14.44 195.738 14.44C197.358 14.44 198.478 13.64 198.478 12.38C198.478 11.14 197.358 10.34 195.738 10.34C194.118 10.34 193.018 11.14 193.018 12.38ZM200.038 12.38C200.038 14.4 198.278 15.72 195.738 15.72C193.198 15.72 191.458 14.4 191.458 12.38C191.458 10.38 193.198 9.06 195.738 9.06C198.278 9.06 200.038 10.38 200.038 12.38ZM194.798 16.94V20.74H205.118V22.08H193.158V16.94H194.798ZM204.318 10.46H206.958V11.84H204.318V18H202.678V4.54H204.318V10.46ZM223.122 14.6L221.482 14.44C221.982 11.46 222.022 9.28 222.022 7.84H214.562V6.5H223.622V7.48C223.622 8.92 223.622 11.26 223.122 14.6ZM219.002 11.62V17.1C220.962 17.02 222.962 16.9 224.782 16.68L224.882 17.88C221.162 18.48 216.942 18.56 213.762 18.56L213.582 17.2C214.722 17.2 216.042 17.18 217.382 17.14V11.62H219.002ZM230.382 12.04V13.42H227.522V22.48H225.882V4.54H227.522V12.04H230.382ZM233.661 18.14V16.82H246.081V22.5H244.441V18.14H233.661ZM235.541 6.58V10.06H244.381V6.58H235.541ZM240.801 13.64H248.081V14.96H231.841V13.64H239.161V11.36H233.941V5.28H246.001V11.36H240.801V13.64ZM259.319 14.6L257.679 14.44C258.179 11.46 258.219 9.28 258.219 7.84H250.759V6.5H259.819V7.48C259.819 8.92 259.819 11.26 259.319 14.6ZM255.199 11.62V17.1C257.159 17.02 259.159 16.9 260.979 16.68L261.079 17.88C257.359 18.48 253.139 18.56 249.959 18.56L249.779 17.2C250.919 17.2 252.239 17.18 253.579 17.14V11.62H255.199ZM266.579 12.04V13.42H263.719V22.48H262.079V4.54H263.719V12.04H266.579ZM274.924 13.26L274.304 11.96C277.424 11.5 280.524 9.44 280.524 7.08V6.98H274.864V5.66H287.964V6.98H282.344V7.08C282.344 9.44 285.444 11.5 288.604 11.96L287.964 13.26C285.184 12.78 282.524 11.28 281.444 9.16C280.344 11.28 277.704 12.78 274.924 13.26ZM289.544 14.76L289.564 16.1H282.224V22.48H280.584V16.1H273.344V14.76H289.544ZM296.683 7.98V9.6C296.683 12.72 298.023 15.84 300.503 17.24L299.503 18.44C297.763 17.4 296.523 15.48 295.903 13.2C295.283 15.66 293.983 17.76 292.203 18.88L291.203 17.66C293.703 16.16 295.103 12.9 295.103 9.6V7.98H291.703V6.64H299.883V7.98H296.683ZM301.483 10.98V4.94H303.043V21.54H301.483V12.32H298.523V10.98H301.483ZM305.083 4.52H306.663V22.46H305.083V4.52ZM318.461 18.92H325.801V20.26H309.501V18.92H316.801V15.54H311.541V10H322.181V7.2H311.501V5.86H323.781V11.32H313.161V14.22H324.201V15.54H318.461V18.92ZM94.4057 34.62V43.64C97.5857 43.64 99.8857 43.5 102.486 43.04L102.666 44.4C99.9257 44.92 97.5657 45.04 94.1857 45.04H92.7657V33.26H101.106V34.62H94.4057ZM108.766 38.62V39.98H105.806V49.52H104.166V31.54H105.806V38.62H108.766ZM112.044 36.82C112.044 38.5 113.324 39.68 115.124 39.68C116.904 39.68 118.204 38.5 118.204 36.82C118.204 35.14 116.904 33.98 115.124 33.98C113.324 33.98 112.044 35.14 112.044 36.82ZM119.804 36.82C119.804 39.32 117.824 41.06 115.124 41.06C112.404 41.06 110.444 39.32 110.444 36.82C110.444 34.34 112.404 32.62 115.124 32.62C117.824 32.62 119.804 34.34 119.804 36.82ZM118.324 48.16C120.964 48.16 122.584 47.38 122.584 46.1C122.584 44.8 120.964 44.04 118.324 44.04C115.664 44.04 114.044 44.8 114.044 46.1C114.044 47.38 115.664 48.16 118.324 48.16ZM118.324 42.74C121.944 42.74 124.224 43.96 124.224 46.1C124.224 48.22 121.944 49.46 118.324 49.46C114.684 49.46 112.404 48.22 112.404 46.1C112.404 43.96 114.684 42.74 118.324 42.74ZM126.644 35.56H124.044V38.04H126.644V39.4H124.044V42.18H122.404V31.56H124.044V34.22H126.644V35.56ZM138.843 33.74V35.06H128.263V33.74H132.723V31.54H134.363V33.74H138.843ZM130.823 39.38C130.823 40.64 131.923 41.44 133.543 41.44C135.163 41.44 136.283 40.64 136.283 39.38C136.283 38.14 135.163 37.34 133.543 37.34C131.923 37.34 130.823 38.14 130.823 39.38ZM137.843 39.38C137.843 41.4 136.083 42.72 133.543 42.72C131.003 42.72 129.263 41.4 129.263 39.38C129.263 37.38 131.003 36.06 133.543 36.06C136.083 36.06 137.843 37.38 137.843 39.38ZM132.603 43.94V47.74H142.923V49.08H130.963V43.94H132.603ZM142.123 37.46H144.763V38.84H142.123V45H140.483V31.54H142.123V37.46ZM164.687 39.34V37.18H161.667V35.86H164.687V31.54H166.347V43.12H164.687V40.68H161.647V39.34H164.687ZM161.647 33.52V34.84H151.607V33.52H155.887V31.38H157.527V33.52H161.647ZM154.167 39.08C154.167 40.34 155.187 41.16 156.687 41.16C158.187 41.16 159.207 40.34 159.207 39.08C159.207 37.84 158.187 37.02 156.687 37.02C155.187 37.02 154.167 37.84 154.167 39.08ZM160.747 39.08C160.747 41.1 159.067 42.42 156.687 42.42C154.287 42.42 152.627 41.1 152.627 39.08C152.627 37.08 154.287 35.76 156.687 35.76C159.067 35.76 160.747 37.08 160.747 39.08ZM160.467 48.2C163.107 48.2 164.727 47.54 164.727 46.4C164.727 45.24 163.107 44.6 160.467 44.6C157.827 44.6 156.187 45.24 156.187 46.4C156.187 47.54 157.827 48.2 160.467 48.2ZM160.467 43.34C164.167 43.34 166.427 44.44 166.427 46.4C166.427 48.34 164.167 49.46 160.467 49.46C156.747 49.46 154.487 48.34 154.487 46.4C154.487 44.44 156.747 43.34 160.467 43.34ZM171.946 39.64V43.68C174.566 43.68 176.166 43.6 178.086 43.22L178.246 44.58C176.166 44.98 174.446 45.04 171.546 45.04H170.366V33.6H177.446V34.94H171.946V38.34H177.166V39.64H171.946ZM183.346 31.54H184.906V49.48H183.346V40.08H180.966V48.6H179.406V31.94H180.966V38.74H183.346V31.54ZM193.584 32.86C196.384 32.86 198.384 34.56 198.384 37.08C198.384 39.58 196.384 41.3 193.584 41.3C190.804 41.3 188.784 39.58 188.784 37.08C188.784 34.56 190.804 32.86 193.584 32.86ZM193.584 34.26C191.744 34.26 190.384 35.4 190.384 37.08C190.384 38.74 191.744 39.9 193.584 39.9C195.444 39.9 196.784 38.74 196.784 37.08C196.784 35.4 195.444 34.26 193.584 34.26ZM200.744 31.54H202.384V49.52H200.744V31.54ZM188.084 45.58L187.884 44.2C191.144 44.2 195.644 44.18 199.564 43.58L199.704 44.8C195.664 45.54 191.324 45.58 188.084 45.58ZM223.049 40.12L223.189 41.34C221.389 41.58 219.509 41.74 217.669 41.82V48.46H216.029V41.9C214.349 41.96 212.749 41.98 211.269 41.98L211.029 40.62C213.489 40.6 216.309 40.58 219.089 40.42C219.309 39.34 219.449 38.38 219.529 37.54L212.489 38.12L212.249 36.72L219.649 36.32C219.709 35.46 219.729 34.78 219.729 34.2H212.609V32.88H221.329V33.66C221.329 34.94 221.329 37.16 220.729 40.32C221.529 40.26 222.289 40.18 223.049 40.12ZM224.329 31.54H225.969V49.46H224.329V31.54ZM230.708 42.62L230.008 41.32C233.108 40.78 236.508 38.28 236.508 35.44V34.66H230.568V33.32H244.148V34.66H238.208V35.44C238.208 38.28 241.628 40.74 244.748 41.26L244.088 42.58C241.368 42.02 238.508 40.26 237.368 37.8C236.228 40.28 233.408 42.08 230.708 42.62ZM229.228 45.74H245.508V47.1H229.228V45.74ZM259.886 34.68V33.22H249.366V32.06H261.506V35.8H251.026V37.34H261.826V38.52H249.406V34.68H259.886ZM250.926 46.4V48.06H262.126V49.24H249.306V45.26H259.946V43.76H249.266V42.58H261.566V46.4H250.926ZM247.326 39.88H263.586V41.12H247.326V39.88ZM278.071 40.14V34.46H273.031V40.14H278.071ZM279.671 33.14V41.44H271.431V33.14H279.671ZM275.091 43.44V47.74H285.411V49.08H273.451V43.44H275.091ZM284.611 37H287.251V38.38H284.611V44.66H282.971V31.52H284.611V37ZM303.089 36.26V37.58H290.949V32.14H302.909V33.46H292.589V36.26H303.089ZM292.389 46.14V47.98H303.469V49.26H290.789V44.92H301.309V43.2H290.729V41.92H302.929V46.14H292.389ZM288.789 39.02H305.029V40.36H288.789V39.02ZM311.688 43.98C313.388 43.98 314.588 42.1 314.588 39.18C314.588 36.28 313.388 34.4 311.688 34.4C309.968 34.4 308.768 36.28 308.768 39.18C308.768 42.1 309.968 43.98 311.688 43.98ZM320.028 31.54H321.668V49.52H320.028V39.72H316.128C315.968 43.24 314.188 45.44 311.688 45.44C309.068 45.44 307.208 43 307.208 39.18C307.208 35.36 309.068 32.92 311.688 32.92C314.108 32.92 315.868 35.02 316.128 38.38H320.028V31.54ZM333.793 37.36V40.66H342.953V37.36H333.793ZM339.193 45.84H346.513V47.18H330.253V45.84H337.533V41.98H332.173V32.82H333.793V36.02H342.953V32.82H344.553V41.98H339.193V45.84ZM353.671 33.24V36.6C353.671 39.48 355.011 42.52 357.371 43.96L356.431 45.24C354.731 44.2 353.531 42.3 352.891 40.12C352.251 42.5 350.951 44.52 349.171 45.62L348.151 44.4C350.611 42.96 352.091 39.74 352.091 36.66V33.24H353.671ZM358.391 37.98V31.94H359.931V48.6H358.391V39.34H355.431V37.98H358.391ZM362.031 31.54H363.591V49.48H362.031V31.54ZM372.069 41.6V45.82H377.069V41.6C376.309 41.78 375.449 41.88 374.549 41.88C373.669 41.88 372.809 41.78 372.069 41.6ZM374.549 33.96C371.669 33.96 369.609 35.28 369.609 37.28C369.609 39.28 371.669 40.6 374.549 40.6C377.429 40.6 379.509 39.28 379.509 37.28C379.509 35.28 377.429 33.96 374.549 33.96ZM378.709 45.82H382.729V47.18H366.429V45.82H370.429V40.98C368.929 40.2 368.029 38.9 368.029 37.28C368.029 34.48 370.749 32.68 374.549 32.68C378.369 32.68 381.069 34.48 381.069 37.28C381.069 38.9 380.189 40.18 378.709 40.96V45.82ZM384.928 45.5H387.608V48H384.928V45.5ZM385.028 33.72H387.528V37.84L386.868 44.02H385.688L385.028 37.84V33.72Z" fill="#58576E"/>
<path d="M123.005 66.892V67.816H115.599V66.892H118.721V65.366H119.869V66.892H123.005ZM117.391 70.658C117.391 71.484 118.147 72.016 119.295 72.016C120.443 72.016 121.213 71.484 121.213 70.658C121.213 69.846 120.443 69.314 119.295 69.314C118.147 69.314 117.391 69.846 117.391 70.658ZM122.305 70.658C122.305 72.016 121.087 72.884 119.295 72.884C117.503 72.884 116.299 72.016 116.299 70.658C116.299 69.314 117.503 68.446 119.295 68.446C121.087 68.446 122.305 69.314 122.305 70.658ZM121.367 77.14C123.201 77.14 124.321 76.664 124.321 75.852C124.321 75.04 123.201 74.564 121.367 74.564C119.533 74.564 118.413 75.04 118.413 75.852C118.413 76.664 119.533 77.14 121.367 77.14ZM121.367 73.682C123.887 73.682 125.455 74.466 125.455 75.852C125.455 77.224 123.887 78.022 121.367 78.022C118.833 78.022 117.279 77.224 117.279 75.852C117.279 74.466 118.833 73.682 121.367 73.682ZM125.301 68.964H127.149V69.916H125.301V73.556H124.153V65.478H125.301V68.964ZM129.486 74.998V74.074H138.18V78.05H137.032V74.998H129.486ZM130.802 66.906V69.342H136.99V66.906H130.802ZM134.484 71.848H139.58V72.772H128.212V71.848H133.336V70.252H129.682V65.996H138.124V70.252H134.484V71.848ZM153.766 74.872V69.384H151.022V68.432H153.766V65.492H154.928V74.872H153.766ZM151.918 71.904L151.316 72.786C149.93 72.24 148.852 71.162 148.32 69.804C147.788 71.302 146.668 72.492 145.198 73.08L144.596 72.17C146.472 71.484 147.732 69.706 147.732 67.788V66.234H148.88V67.83C148.88 69.58 150.112 71.232 151.918 71.904ZM147.998 76.818H155.222V77.756H146.85V73.836H147.998V76.818ZM163.131 71.162L163.243 72.086C161.801 72.38 160.611 72.436 158.595 72.436H157.797V66.402H162.641V67.326H158.903V68.908H162.501V69.79H158.903V71.498C160.695 71.498 161.815 71.428 163.131 71.162ZM159.407 74.676V73.752H167.849V78.036H166.701V74.676H159.407ZM166.743 65.492H167.849V73.094H166.743V69.692H165.063V73.01H163.971V65.716H165.063V68.754H166.743V65.492ZM174.372 66.57V68.824C174.372 71.12 175.87 73.43 177.732 74.27L177.046 75.194C175.618 74.494 174.414 73.01 173.812 71.218C173.238 73.108 172.034 74.676 170.564 75.432L169.864 74.494C171.712 73.612 173.238 71.204 173.238 68.824V66.57H174.372ZM179.048 65.478H180.196V78.064H179.048V65.478ZM194.619 71.484L194.717 72.338C193.457 72.506 192.141 72.618 190.853 72.674V77.322H189.705V72.73C188.529 72.772 187.409 72.786 186.373 72.786L186.205 71.834C187.927 71.82 189.901 71.806 191.847 71.694C192.001 70.938 192.099 70.266 192.155 69.678L187.227 70.084L187.059 69.104L192.239 68.824C192.281 68.222 192.295 67.746 192.295 67.34H187.311V66.416H193.415V66.962C193.415 67.858 193.415 69.412 192.995 71.624C193.555 71.582 194.087 71.526 194.619 71.484ZM195.515 65.478H196.663V78.022H195.515V65.478ZM199.98 73.234L199.49 72.324C201.66 71.946 204.04 70.196 204.04 68.208V67.662H199.882V66.724H209.388V67.662H205.23V68.208C205.23 70.196 207.624 71.918 209.808 72.282L209.346 73.206C207.442 72.814 205.44 71.582 204.642 69.86C203.844 71.596 201.87 72.856 199.98 73.234ZM198.944 75.418H210.34V76.37H198.944V75.418ZM223.195 69.79V72.828H222.103V65.73H223.195V68.852H224.791V65.492H225.897V73.234H224.791V69.79H223.195ZM221.585 71.372L220.969 72.254C219.793 71.778 218.939 70.882 218.491 69.818C218.043 70.994 217.147 72.058 215.929 72.604L215.313 71.708C216.951 70.98 217.931 69.356 217.931 67.956V66.262H219.037V67.956C219.037 69.342 219.975 70.756 221.585 71.372ZM221.753 77.14C223.657 77.14 224.819 76.636 224.819 75.768C224.819 74.9 223.657 74.41 221.753 74.41C219.877 74.41 218.701 74.9 218.701 75.768C218.701 76.636 219.877 77.14 221.753 77.14ZM221.753 73.514C224.343 73.514 225.953 74.34 225.953 75.768C225.953 77.196 224.343 78.022 221.753 78.022C219.177 78.022 217.567 77.196 217.567 75.768C217.567 74.34 219.177 73.514 221.753 73.514ZM237.152 72.912V69.09H234.422V68.152H237.152V65.492H238.314V72.912H237.152ZM235.332 71.428L234.716 72.324C233.344 71.806 232.28 70.812 231.734 69.51C231.202 70.994 230.068 72.128 228.556 72.702L227.954 71.764C229.886 71.078 231.132 69.398 231.132 67.48V66.192H232.28V67.438C232.28 69.23 233.498 70.784 235.332 71.428ZM234.17 77.112C236.06 77.112 237.208 76.566 237.208 75.656C237.208 74.732 236.06 74.186 234.17 74.186C232.28 74.186 231.132 74.732 231.132 75.656C231.132 76.566 232.28 77.112 234.17 77.112ZM234.17 73.29C236.746 73.29 238.356 74.144 238.356 75.656C238.356 77.154 236.746 78.022 234.17 78.022C231.594 78.022 229.984 77.154 229.984 75.656C229.984 74.144 231.594 73.29 234.17 73.29ZM246.521 67.998V73.948C247.039 73.934 247.557 73.92 248.089 73.892V67.998H246.521ZM249.139 67.998V73.822C249.587 73.78 250.049 73.738 250.455 73.682L250.525 74.522C248.579 74.886 245.947 74.942 244.309 74.942L244.197 73.99C244.575 73.99 244.995 73.99 245.471 73.976V67.998H244.435V67.074H250.175V67.998H249.139ZM251.519 70.266V65.786H252.597V77.378H251.519V71.274H249.797V70.266H251.519ZM253.941 65.492H255.047V78.036H253.941V65.492ZM266.12 65.478H267.268V78.064H266.12V65.478ZM260.646 66.444C262.508 66.444 263.838 68.152 263.838 70.826C263.838 73.5 262.508 75.208 260.646 75.208C258.784 75.208 257.454 73.5 257.454 70.826C257.454 68.152 258.784 66.444 260.646 66.444ZM260.646 67.48C259.414 67.48 258.546 68.796 258.546 70.826C258.546 72.87 259.414 74.186 260.646 74.186C261.864 74.186 262.732 72.87 262.732 70.826C262.732 68.796 261.864 67.48 260.646 67.48ZM274.141 67.718V69.314C274.141 71.442 275.653 73.612 277.501 74.396L276.857 75.32C275.401 74.648 274.169 73.206 273.567 71.484C272.993 73.318 271.761 74.9 270.333 75.628L269.661 74.704C271.467 73.85 272.993 71.484 272.993 69.314V67.718H270.081V66.766H277.095V67.718H274.141ZM278.789 65.492H279.937V78.036H278.789V65.492ZM288.588 75.544H293.726V76.482H282.316V75.544H287.426V73.178H283.744V69.3H291.192V67.34H283.716V66.402H292.312V70.224H284.878V72.254H292.606V73.178H288.588V75.544ZM307.814 65.478H308.962V78.064H307.814V65.478ZM302.34 66.444C304.202 66.444 305.532 68.152 305.532 70.826C305.532 73.5 304.202 75.208 302.34 75.208C300.478 75.208 299.148 73.5 299.148 70.826C299.148 68.152 300.478 66.444 302.34 66.444ZM302.34 67.48C301.108 67.48 300.24 68.796 300.24 70.826C300.24 72.87 301.108 74.186 302.34 74.186C303.558 74.186 304.426 72.87 304.426 70.826C304.426 68.796 303.558 67.48 302.34 67.48ZM317.038 77.14C318.998 77.14 320.16 76.65 320.16 75.768C320.16 74.886 318.998 74.396 317.038 74.396C315.05 74.396 313.888 74.886 313.888 75.768C313.888 76.65 315.05 77.14 317.038 77.14ZM317.038 73.5C319.698 73.5 321.322 74.312 321.322 75.768C321.322 77.224 319.698 78.036 317.038 78.036C314.35 78.036 312.726 77.224 312.726 75.768C312.726 74.312 314.35 73.5 317.038 73.5ZM317.612 71.68H322.722V72.604H311.354V71.68H316.464V70.224H312.782V66.052H321.308V66.976H313.93V69.3H321.392V70.224H317.612V71.68ZM331.471 66.766V67.69H324.065V66.766H327.187V65.352H328.335V66.766H331.471ZM325.857 70.476C325.857 71.302 326.613 71.806 327.761 71.806C328.909 71.806 329.679 71.302 329.679 70.476C329.679 69.664 328.909 69.146 327.761 69.146C326.613 69.146 325.857 69.664 325.857 70.476ZM330.771 70.476C330.771 71.82 329.553 72.674 327.761 72.674C325.969 72.674 324.765 71.82 324.765 70.476C324.765 69.146 325.969 68.292 327.761 68.292C329.553 68.292 330.771 69.146 330.771 70.476ZM332.633 76.944V75.558H327.005V76.944H332.633ZM332.633 74.662V73.332H333.767V77.868H325.871V73.332H327.005V74.662H332.633ZM335.629 68.67V69.636H333.767V72.772H332.619V65.478H333.767V68.67H335.629ZM338.624 66.696V73.808C340.514 73.808 342.46 73.64 344.546 73.22L344.672 74.2C342.488 74.648 340.514 74.788 338.512 74.788H337.476V66.696H338.624ZM345.834 65.478H346.982V78.022H345.834V65.478ZM351.041 67.634V73.948C353.267 73.948 354.877 73.85 356.697 73.528L356.823 74.48C354.905 74.844 353.253 74.928 350.887 74.928H349.893V66.682H355.731V67.634H351.041ZM361.093 70.434V71.386H359.021V78.064H357.873V65.478H359.021V70.434H361.093ZM362.254 75.11H364.2V77H362.254V75.11Z" fill="#ADADB2"/>
<path fill-rule="evenodd" clip-rule="evenodd" d="M438.156 51.1557C441.06 51.1557 443.693 49.9939 445.615 48.1097C447.537 49.9939 450.17 51.1557 453.074 51.1557C456.199 51.1557 459.01 49.8104 460.959 47.6672C462.908 49.8104 465.719 51.1557 468.844 51.1557C474.729 51.1557 479.5 46.385 479.5 40.5C479.5 34.615 474.729 29.8442 468.844 29.8442C465.719 29.8442 462.908 31.1896 460.959 33.3327C459.01 31.1896 456.199 29.8442 453.074 29.8442C450.17 29.8442 447.537 31.0061 445.615 32.8903C443.693 31.0061 441.06 29.8442 438.156 29.8442C432.271 29.8442 427.5 34.615 427.5 40.5C427.5 46.385 432.271 51.1557 438.156 51.1557Z" fill="#B5CAFF"/>
</svg>
