<svg width="146" height="28" viewBox="0 0 146 28" fill="none" xmlns="http://www.w3.org/2000/svg">
<path d="M5.59339 6.34552H14.1745C16.2863 10.8146 18.7337 18.8336 19.7679 25.5047H13.1403L12.5999 23.0325C10.87 23.1226 9.0283 23.1226 7.16488 23.076L6.62448 25.5015H0C1.0342 18.8305 3.4815 10.8115 5.59339 6.34241V6.34552ZM11.4321 18.0727C10.9818 16.2745 10.4662 14.3893 9.88237 12.501C9.2985 14.3893 8.78295 16.2962 8.33262 18.0944C9.36682 18.0727 10.4228 18.0478 11.4321 18.0727Z" fill="#A2AEFF"/>
<path d="M21.2493 6.34583H28.0321C28.4359 12.8368 28.3676 19.014 27.6284 25.505H21.653C20.9108 19.014 20.8455 12.8368 21.2493 6.34583Z" fill="#717ED4"/>
<path d="M140.9 5.51719H116.689C114.052 5.51719 111.914 7.65424 111.914 10.2904C111.914 12.9266 114.052 15.0636 116.689 15.0636H140.9C143.537 15.0636 145.675 12.9266 145.675 10.2904C145.675 7.65424 143.537 5.51719 140.9 5.51719Z" fill="#B5CAFF"/>
<path d="M117.413 11.4279L117.856 11.4141C117.78 11.3725 117.728 11.2963 117.697 11.1855C117.666 11.0747 117.645 10.8947 117.635 10.6488C117.624 10.3995 117.621 9.99091 117.621 9.42651C118.05 9.39534 118.452 9.38149 118.829 9.37803L118.808 11.3898H119.006C119.092 11.3379 119.155 11.2721 119.2 11.189C119.245 11.1059 119.276 10.9674 119.293 10.7804C119.31 10.5934 119.321 10.3199 119.321 9.95975L119.31 9.32609V9.19797H119.04C118.421 9.19797 117.839 9.22567 117.295 9.27761L117.247 8.19727C117.783 8.13841 118.376 8.10724 119.027 8.10724C119.677 8.10724 120.266 8.13841 120.799 8.19727L120.751 9.288L120.519 9.26376C120.519 9.84548 120.498 10.2679 120.47 10.538C120.443 10.8081 120.391 10.9985 120.315 11.1059C120.238 11.2132 120.124 11.2963 119.965 11.3552L120.644 11.3344V12.3213H117.413V11.4314V11.4279ZM120.976 10.0013C120.976 9.29146 120.997 8.6024 121.038 7.94104H122.385C122.413 8.45697 122.423 8.93828 122.423 9.38495V9.59617H122.894V10.6765H122.392C122.368 11.2963 122.323 11.9404 122.25 12.6087H121.08C121.007 11.7569 120.972 10.8877 120.972 9.99784L120.976 10.0013Z" fill="white"/>
<path d="M123.933 10.7388C123.677 10.6176 123.479 10.4445 123.344 10.2264C123.209 10.0082 123.143 9.75199 123.143 9.46113C123.143 8.99022 123.292 8.62664 123.587 8.37387C123.884 8.1211 124.307 7.99644 124.861 7.99644C125.415 7.99644 125.841 8.1211 126.135 8.37387C126.433 8.62664 126.578 8.98675 126.578 9.46113C126.578 9.75199 126.513 10.0082 126.378 10.2264C126.242 10.4445 126.049 10.6176 125.789 10.7388C125.529 10.86 125.221 10.9224 124.857 10.9224C124.494 10.9224 124.182 10.86 123.926 10.7388H123.933ZM124.123 12.4944C123.933 12.4217 123.798 12.3282 123.722 12.2105C123.646 12.0927 123.607 11.9508 123.607 11.7811C123.607 11.6599 123.621 11.5352 123.649 11.4037C123.677 11.2721 123.711 11.1509 123.756 11.0401L125.269 11.1301C125.259 11.2028 125.252 11.2755 125.245 11.3552C125.238 11.4348 125.238 11.4902 125.242 11.5283C125.242 11.5906 125.273 11.6391 125.328 11.6738C125.384 11.7084 125.456 11.7292 125.546 11.7361C125.74 11.7465 125.938 11.7499 126.135 11.7499C126.81 11.7499 127.544 11.698 128.341 11.5941L128.507 12.4805C127.669 12.6017 126.831 12.6641 126 12.6641C125.657 12.6641 125.297 12.6537 124.923 12.6329C124.584 12.6156 124.317 12.5706 124.123 12.5013V12.4944ZM125.19 9.87318C125.266 9.77969 125.304 9.63773 125.304 9.45421C125.304 9.27069 125.266 9.13218 125.19 9.03523C125.114 8.94174 125.003 8.89326 124.864 8.89326C124.726 8.89326 124.615 8.94174 124.539 9.03523C124.463 9.12872 124.425 9.27069 124.425 9.45421C124.425 9.63773 124.463 9.77623 124.539 9.87318C124.615 9.96667 124.726 10.0152 124.864 10.0152C125.003 10.0152 125.114 9.96667 125.19 9.87318ZM126.942 10.2922C126.921 9.95975 126.911 9.62388 126.911 9.28454C126.911 8.72706 126.932 8.28038 126.973 7.94104H128.507C128.528 8.20766 128.538 8.52968 128.538 8.91057C128.538 9.32263 128.524 9.73122 128.5 10.1329C128.472 10.5345 128.434 10.8704 128.382 11.137H127.022C126.987 10.905 126.963 10.6211 126.942 10.2922Z" fill="white"/>
<path d="M129.664 11.9577C129.445 11.7984 129.283 11.6045 129.172 11.376C129.061 11.1474 129.006 10.9016 129.006 10.6315C129.006 10.4064 129.044 10.1744 129.12 9.93897C129.196 9.70352 129.314 9.47152 129.466 9.24645L129.089 9.2603L129.04 8.17996C129.542 8.13495 130.114 8.11071 130.754 8.11071C131.395 8.11071 131.973 8.13495 132.475 8.17996L132.427 9.27069C132.074 9.23952 131.686 9.22567 131.267 9.22567C131.062 9.22567 130.924 9.22567 130.844 9.23606C130.692 9.35033 130.571 9.50268 130.477 9.68966C130.813 9.67928 131.156 9.67581 131.509 9.67581C131.717 9.67581 132.008 9.67582 132.389 9.6862L132.413 10.6938C131.932 10.7111 131.478 10.7181 131.052 10.7181C130.768 10.7181 130.553 10.7181 130.411 10.7146C130.505 10.9258 130.664 11.0678 130.889 11.1474C131.052 11.2063 131.263 11.2375 131.52 11.2375C131.862 11.2375 132.174 11.189 132.454 11.0955L132.676 12.117C132.482 12.1931 132.25 12.252 131.98 12.2901C131.71 12.3282 131.44 12.3524 131.166 12.3524C130.893 12.3524 130.661 12.3316 130.46 12.2936C130.148 12.2312 129.885 12.1204 129.667 11.9611L129.664 11.9577ZM132.915 10.0013C132.915 9.29146 132.936 8.6024 132.977 7.94104H134.397C134.425 8.4639 134.435 8.95559 134.435 9.40919C134.435 10.4618 134.376 11.5283 134.262 12.6087H133.019C132.946 11.7569 132.911 10.8877 132.911 9.99784L132.915 10.0013Z" fill="white"/>
<path d="M135.657 10.6801C135.938 10.4065 136.152 10.1503 136.298 9.91138C136.339 9.84559 136.36 9.79019 136.36 9.74517C136.36 9.70362 136.336 9.67246 136.287 9.65515C136.239 9.63783 136.159 9.62744 136.045 9.62744C135.907 9.62744 135.754 9.64129 135.585 9.66553C135.415 9.68977 135.259 9.7244 135.124 9.77288L135.017 8.61636C135.2 8.55403 135.425 8.50555 135.692 8.46746C135.959 8.42938 136.222 8.41206 136.474 8.41552C136.211 8.30818 135.914 8.23201 135.574 8.19392L135.972 7.37328C136.301 7.44599 136.592 7.56026 136.848 7.71608C137.105 7.87189 137.274 8.04502 137.354 8.22854L137.188 8.49517C137.427 8.56442 137.607 8.67522 137.724 8.83104C137.842 8.9834 137.901 9.16691 137.901 9.37813C137.901 9.59974 137.839 9.8352 137.714 10.0776C137.652 10.1988 137.576 10.3373 137.482 10.4896C137.548 10.4689 137.614 10.4585 137.679 10.4585C137.808 10.4585 137.925 10.4931 138.036 10.5589C138.147 10.6247 138.233 10.7251 138.299 10.8532C138.365 10.9813 138.396 11.1371 138.396 11.3137C138.396 11.6185 138.296 11.9543 138.095 12.3248H137.073C137.08 12.221 137.084 12.0824 137.084 11.9128C137.084 11.4765 137.035 11.2549 136.942 11.248C136.561 11.6981 136.104 12.0928 135.567 12.4322L134.722 11.4245C135.065 11.2064 135.38 10.9571 135.657 10.6835V10.6801ZM138.053 9.30542H138.732C138.742 8.84835 138.763 8.39129 138.791 7.94461H140.311C140.339 8.46746 140.349 8.95916 140.349 9.41276C140.349 10.4654 140.29 11.5319 140.176 12.6122H138.833C138.777 11.9301 138.739 11.2203 138.725 10.4827H138.053V9.30196V9.30542Z" fill="white"/>
<path d="M40.5543 24.7096C38.9518 23.8773 37.7219 22.7064 36.8585 21.1939C35.9982 19.6815 35.5665 17.9236 35.5665 15.9142C35.5665 13.9048 35.9982 12.1532 36.8585 10.647C37.7188 9.14069 38.9518 7.97294 40.5543 7.14371C42.1568 6.31138 44.0513 5.89832 46.2378 5.89832C48.4242 5.89832 50.2907 6.31449 51.887 7.14371C53.4834 7.97604 54.7008 9.14379 55.5487 10.647C56.3934 12.1532 56.8189 13.908 56.8189 15.9142C56.8189 17.3832 56.5673 18.7187 56.0673 19.9237C55.5642 21.1287 54.8716 22.0977 53.9896 22.8338C54.648 22.9984 55.3685 23.0791 56.145 23.0791C56.6077 23.0791 57.1636 23.0418 57.8065 22.9673L56.6605 27.865C56.4649 27.8805 56.1667 27.8868 55.763 27.8868C54.5362 27.8868 53.443 27.7066 52.4833 27.3464C51.5237 26.9861 50.7379 26.4706 50.1261 25.7966C49.4087 25.9022 48.1105 25.955 46.2409 25.955C44.0544 25.955 42.16 25.5388 40.5574 24.7096H40.5543ZM48.654 18.846C49.2441 18.1814 49.5422 17.2031 49.5422 15.9142C49.5422 14.6254 49.2472 13.6719 48.654 13.0042C48.0608 12.3365 47.2564 12.0042 46.2409 12.0042C45.2253 12.0042 44.4178 12.3365 43.8277 13.0042C43.2345 13.6719 42.9395 14.6409 42.9395 15.9142C42.9395 17.1876 43.2345 18.1783 43.8277 18.846C44.4178 19.5138 45.2253 19.8461 46.2409 19.8461C47.2564 19.8461 48.0639 19.5138 48.654 18.846Z" fill="#A2AEFF"/>
<path d="M62.6053 24.5095C60.6917 23.273 59.4705 20.8014 58.9446 17.0943C58.8868 16.7101 58.8135 16.0995 58.722 15.266C58.4243 12.5555 58.2657 9.94526 58.2459 7.4323L64.945 6.69658C65.0839 8.92776 65.2528 10.9494 65.4521 12.7647C65.5749 13.8822 65.7067 14.8832 65.851 15.7703C66.0649 17.1778 66.398 18.191 66.8506 18.813C67.3032 19.435 68.0279 19.6897 69.0251 19.5802C70.0222 19.4707 70.6744 19.0648 70.9812 18.3594C71.2884 17.657 71.3933 16.5926 71.2967 15.1722C71.245 14.2749 71.1561 13.2661 71.0337 12.1517C70.8343 10.3364 70.5605 8.3263 70.2117 6.11816L76.9108 5.38243C77.4369 7.83979 77.849 10.4253 78.1463 13.1327C78.2378 13.9662 78.2957 14.5785 78.3257 14.9657C78.6139 18.699 77.9613 21.3764 76.3616 22.9987C74.762 24.6209 72.5466 25.586 69.7188 25.8965C66.8909 26.2071 64.5189 25.7459 62.6053 24.5095Z" fill="#717ED4"/>
<path d="M80.2144 13.9393C80.2144 11.5572 80.2951 9.02917 80.4628 6.34583H87.2457C87.4103 9.02606 87.4941 11.5572 87.4941 13.9393C87.4941 17.8463 87.2767 21.7036 86.8419 25.5081H80.8666C80.4318 21.7036 80.2144 17.8494 80.2144 13.9393Z" fill="#A2AEFF"/>
<path d="M92.4788 15.9486C93.9758 14.52 95.5566 13.1659 97.2181 11.8956C95.9013 11.8801 94.5006 11.908 93.0192 11.9733C91.5378 12.0385 90.2551 12.1286 89.1775 12.231L89.1091 6.27739C91.1744 6.11279 93.6466 6.02894 96.5225 6.02894C99.681 6.02894 102.647 6.13453 105.417 6.34262V11.8677C104.367 13.2 103.116 14.5727 101.656 15.989C100.197 17.4052 98.7027 18.694 97.1747 19.8649H98.2989C99.6468 19.8649 101.01 19.84 102.386 19.7872C103.765 19.7344 104.917 19.6568 105.846 19.5512L105.914 25.4583C103.818 25.6539 101.212 25.7502 98.0971 25.7502C94.6373 25.7502 91.5533 25.6291 88.842 25.3899V19.9084C89.7706 18.694 90.9819 17.3741 92.4819 15.9424L92.4788 15.9486Z" fill="#717ED4"/>
<path d="M62.6517 4.95993C63.6748 4.84865 64.414 3.92904 64.3027 2.90593C64.1915 1.88282 63.2718 1.14364 62.2487 1.25493C61.2256 1.36621 60.4865 2.28582 60.5977 3.30893C60.709 4.33204 61.6286 5.07122 62.6517 4.95993Z" fill="#B5CAFF"/>
<path d="M71.2968 4.01974C72.3199 3.90846 73.059 2.98885 72.9478 1.96574C72.8365 0.942635 71.9169 0.203458 70.8938 0.314743C69.8707 0.426028 69.1315 1.34564 69.2428 2.36874C69.354 3.39185 70.2737 4.13103 71.2968 4.01974Z" fill="#B5CAFF"/>
</svg>
