<svg width="40" height="40" viewBox="0 0 40 40" fill="none" xmlns="http://www.w3.org/2000/svg">
<circle cx="20" cy="20" r="20" fill="#D9DEFF"/>
<path d="M12.0412 20.45V17.33H9.81117V20.45H12.0412ZM8.99117 20.45V17.33H7.60117V16.67H14.2512V17.33H12.8612V20.45H14.2312V21.12H7.62117V20.45H8.99117ZM6.88117 22.91H15.0112V23.59H6.88117V22.91ZM20.4004 22.96H24.0704V23.63H15.9204V22.96H19.5704V21.27H16.9404V18.5H22.2604V17.1H16.9204V16.43H23.0604V19.16H17.7504V20.61H23.2704V21.27H20.4004V22.96ZM32.3496 15.77V20.43H31.5296V15.77H32.3496ZM27.0596 17.02V19.41C27.5396 19.4 28.0296 19.38 28.5196 19.35V17.02H27.0596ZM30.6296 19.18L30.6696 19.78C28.8896 20.05 26.7996 20.11 25.2196 20.12L25.1396 19.44C25.4896 19.44 25.8696 19.44 26.2596 19.43V17.02H25.3796V16.37H30.1896V17.02H29.3096V19.3C29.7596 19.27 30.1996 19.22 30.6296 19.18ZM27.3296 23.99H32.6896V24.64H26.5196V22.4H31.5396V21.5H26.4896V20.86H32.3496V23.01H27.3296V23.99Z" fill="#58576E"/>
</svg>
