<svg width="146" height="146" viewBox="0 0 146 146" fill="none" xmlns="http://www.w3.org/2000/svg">
<circle cx="73" cy="73" r="73" fill="#E0E6FA"/>
<circle cx="73" cy="73" r="70" fill="#F6F7FF"/>
<rect x="35" y="32" width="76" height="88" rx="8" fill="#90A8FF"/>
<path d="M82.7294 56.0364H93.187V58.3273H85.3809V62.294H92.2324V64.4576H85.3809V71.1818H82.7294V56.0364Z" fill="white"/>
<path d="M67.7392 56.0364H74.018C75.1776 56.0364 76.1817 56.2344 77.0301 56.6303C77.8786 57.0263 78.5716 57.5707 79.1089 58.2637C79.6463 58.9424 80.0423 59.7414 80.2968 60.6606C80.5655 61.5798 80.6998 62.5626 80.6998 63.6091C80.6998 64.6556 80.5655 65.6384 80.2968 66.5576C80.0423 67.4768 79.6463 68.2828 79.1089 68.9758C78.5716 69.6546 77.8786 70.1919 77.0301 70.5879C76.1817 70.9839 75.1776 71.1818 74.018 71.1818H67.7392V56.0364ZM70.3907 69.0182H72.9998C74.0322 69.0182 74.8736 68.8839 75.5241 68.6152C76.1887 68.3323 76.7049 67.9505 77.0726 67.4697C77.4544 66.9748 77.7089 66.402 77.8362 65.7515C77.9776 65.0869 78.0483 64.3727 78.0483 63.6091C78.0483 62.8455 77.9776 62.1384 77.8362 61.4879C77.7089 60.8232 77.4544 60.2505 77.0726 59.7697C76.7049 59.2748 76.1887 58.8929 75.5241 58.6243C74.8736 58.3414 74.0322 58.2 72.9998 58.2H70.3907V69.0182Z" fill="white"/>
<path d="M53.9091 56.0364H60.5909C61.6656 56.0364 62.5424 56.1919 63.2212 56.503C63.9 56.8142 64.4232 57.203 64.7909 57.6697C65.1586 58.1364 65.406 58.6455 65.5333 59.197C65.6747 59.7485 65.7454 60.2576 65.7454 60.7243C65.7454 61.1909 65.6747 61.7 65.5333 62.2515C65.406 62.7889 65.1586 63.2909 64.7909 63.7576C64.4232 64.2243 63.9 64.6131 63.2212 64.9243C62.5424 65.2212 61.6656 65.3697 60.5909 65.3697H56.5606V71.1818H53.9091V56.0364ZM56.5606 63.2061H60.4424C60.7394 63.2061 61.0434 63.1637 61.3545 63.0788C61.6656 62.994 61.9485 62.8596 62.203 62.6758C62.4717 62.4778 62.6838 62.2232 62.8394 61.9121C63.0091 61.5869 63.0939 61.1839 63.0939 60.703C63.0939 60.2081 63.0232 59.798 62.8818 59.4727C62.7404 59.1475 62.5495 58.8929 62.3091 58.7091C62.0687 58.5111 61.7929 58.3768 61.4818 58.3061C61.1707 58.2354 60.8384 58.2 60.4848 58.2H56.5606V63.2061Z" fill="white"/>
<rect opacity="0.75" x="44.3636" y="89.2122" width="58.3333" height="16.9697" rx="4" fill="white"/>
</svg>
