<svg width="146" height="146" viewBox="0 0 146 146" fill="none" xmlns="http://www.w3.org/2000/svg">
<g id="Group 80">
<circle id="Ellipse 54" cx="73" cy="73" r="73" fill="#E0E6FA"/>
<circle id="Ellipse 55" cx="73" cy="73" r="70" fill="#F6F7FF"/>
<g id="Group 79">
<rect id="Rectangle 165" x="24" y="42" width="98.3553" height="65" rx="8" fill="#B5CAFF"/>
<path id="Line 1" d="M30.8421 97.5921H116.368" stroke="white" stroke-width="2" stroke-linecap="round"/>
<g id="PPT">
<path id="Vector" d="M55.0222 55.4447H64.9091V57.2921H61.0262V67.6579H58.888V57.2921H55.0222V55.4447Z" fill="white"/>
<path id="Vector_2" d="M45.0328 55.4447H50.421C51.2877 55.4447 51.9947 55.5702 52.542 55.821C53.0894 56.0719 53.5113 56.3855 53.8078 56.7618C54.1043 57.1382 54.3039 57.5487 54.4065 57.9934C54.5206 58.4382 54.5776 58.8487 54.5776 59.225C54.5776 59.6013 54.5206 60.0118 54.4065 60.4566C54.3039 60.8899 54.1043 61.2947 53.8078 61.671C53.5113 62.0474 53.0894 62.361 52.542 62.6118C51.9947 62.8513 51.2877 62.971 50.421 62.971H47.171V67.6579H45.0328V55.4447ZM47.171 61.2263H50.3013C50.5407 61.2263 50.7859 61.1921 51.0368 61.1237C51.2877 61.0553 51.5157 60.9469 51.721 60.7987C51.9377 60.639 52.1087 60.4338 52.2342 60.1829C52.371 59.9206 52.4394 59.5956 52.4394 59.2079C52.4394 58.8088 52.3824 58.4781 52.2684 58.2158C52.1543 57.9535 52.0004 57.7482 51.8065 57.6C51.6127 57.4403 51.3903 57.332 51.1394 57.275C50.8885 57.218 50.6206 57.1895 50.3355 57.1895H47.171V61.2263Z" fill="white"/>
<path id="Vector_3" d="M33.8804 55.4447H39.2685C40.1352 55.4447 40.8422 55.5702 41.3896 55.821C41.937 56.0719 42.3589 56.3855 42.6554 56.7618C42.9519 57.1382 43.1514 57.5487 43.2541 57.9934C43.3681 58.4382 43.4251 58.8487 43.4251 59.225C43.4251 59.6013 43.3681 60.0118 43.2541 60.4566C43.1514 60.8899 42.9519 61.2947 42.6554 61.671C42.3589 62.0474 41.937 62.361 41.3896 62.6118C40.8422 62.8513 40.1352 62.971 39.2685 62.971H36.0185V67.6579H33.8804V55.4447ZM36.0185 61.2263H39.1488C39.3883 61.2263 39.6334 61.1921 39.8843 61.1237C40.1352 61.0553 40.3633 60.9469 40.5685 60.7987C40.7852 60.639 40.9562 60.4338 41.0817 60.1829C41.2185 59.9206 41.287 59.5956 41.287 59.2079C41.287 58.8088 41.2299 58.4781 41.1159 58.2158C41.0019 57.9535 40.8479 57.7482 40.6541 57.6C40.4602 57.4403 40.2378 57.332 39.987 57.275C39.7361 57.218 39.4681 57.1895 39.183 57.1895H36.0185V61.2263Z" fill="white"/>
</g>
<path id="Ellipse 54_2" opacity="0.75" d="M87.2895 78.3487C87.2895 80.6323 87.9667 82.8646 89.2353 84.7633C90.504 86.6621 92.3073 88.142 94.4171 89.0159C96.5268 89.8897 98.8483 90.1184 101.088 89.6729C103.328 89.2274 105.385 88.1277 107 86.513C108.615 84.8982 109.714 82.8409 110.16 80.6012C110.605 78.3615 110.377 76.04 109.503 73.9302C108.629 71.8204 107.149 70.0172 105.25 68.7485C103.351 67.4798 101.119 66.8026 98.8355 66.8026L98.8355 78.3487L87.2895 78.3487Z" fill="white"/>
<path id="Ellipse 55_2" opacity="0.75" d="M96.2697 63.3816C94.7535 63.3816 93.2521 63.6802 91.8513 64.2605C90.4504 64.8407 89.1776 65.6912 88.1055 66.7633C87.0333 67.8355 86.1828 69.1083 85.6026 70.5092C85.0223 71.91 84.7237 73.4114 84.7237 74.9276L96.2697 74.9276L96.2697 63.3816Z" fill="white"/>
</g>
</g>
</svg>
