<svg width="146" height="146" viewBox="0 0 146 146" fill="none" xmlns="http://www.w3.org/2000/svg">
<circle cx="73" cy="73" r="73" fill="#E0E6FA"/>
<circle cx="73" cy="73" r="70" fill="#F6F7FF"/>
<mask id="mask0_58_840" style="mask-type:alpha" maskUnits="userSpaceOnUse" x="3" y="3" width="140" height="140">
<circle cx="73" cy="73" r="70" fill="#E5F1FF"/>
</mask>
<g mask="url(#mask0_58_840)">
<path d="M62.0523 20.543L66.4493 23.2911L70.2967 44.1768C64.9837 62.8639 51.1698 92.5436 38.4186 61.7647C25.6673 30.9858 48.8614 21.459 62.0523 20.543Z" fill="#5E5A65"/>
<path d="M91.1917 21.2709C75.7635 12.9848 63.8709 17.8184 59.8531 21.2709L67.6878 37.0798C76.326 50.5266 96.3747 73.8221 107.464 59.4305C121.325 41.4409 110.477 31.6285 91.1917 21.2709Z" fill="#5E5A65"/>
<path d="M79.6398 93.6428H64.2504V105.987L44.4639 115.078L47.212 130.468H98.8766V115.078L79.6398 105.735V93.6428Z" fill="#FEA0B0"/>
<path d="M96.1298 59.5663H103.275C109.042 59.5663 113.718 64.2417 113.718 70.0091C113.718 75.7765 109.042 80.4519 103.275 80.4519H96.1298V59.5663Z" fill="#FFBBC6"/>
<path d="M48.8606 59.5663H41.7155C35.9481 59.5663 31.2727 64.2417 31.2727 70.0091C31.2727 75.7765 35.9481 80.4519 41.7155 80.4519H48.8606V59.5663Z" fill="#FFBBC6"/>
<rect x="42.2663" y="26.5891" width="59.3593" height="73.6495" rx="27.5162" fill="#FFD5DC"/>
<rect x="80.0331" y="62.8635" width="5.88882" height="10.9925" rx="2.94441" fill="#5E5A65"/>
<rect x="56.5557" y="62.8637" width="5.88882" height="10.9925" rx="2.94441" fill="#5E5A65"/>
<path d="M77.9914 58.4663C80.5563 57.5503 85.3563 55.7189 90.6327 57.9174" stroke="#5E5A65" stroke-width="4.12742" stroke-linecap="round"/>
<path d="M64.2495 58.4663C61.6845 57.5503 56.8845 55.7189 51.6081 57.9174" stroke="#5E5A65" stroke-width="4.12742" stroke-linecap="round"/>
<path d="M63.2018 85.5997C65.6991 87.3492 72.124 89.2396 80.1896 85.5999" stroke="#FD889F" stroke-width="2.75162" stroke-linecap="round"/>
<path d="M66.4501 66.1624H75.244" stroke="#B693CC" stroke-width="4.12742" stroke-linecap="round"/>
<rect x="74.4201" y="59.8437" width="21.4318" height="17.0348" rx="6.87904" stroke="#B693CC" stroke-width="2.75162"/>
<rect x="45.8398" y="59.8437" width="21.4318" height="17.0348" rx="6.87904" stroke="#B693CC" stroke-width="2.75162"/>
<path d="M68.6466 70.5592L65.3488 78.254L70.2954 79.9028" stroke="#FD889F" stroke-width="2.75162" stroke-linecap="round"/>
<path d="M71.9443 104.086L81.2879 100.788L86.2345 106.834L93.3796 111.231L81.8375 146.956L62.0511 146.407L48.8601 111.231L56.5548 106.284L62.6007 100.788L71.9443 104.086Z" fill="#F9FBFF"/>
<path fill-rule="evenodd" clip-rule="evenodd" d="M68.9201 107.933H74.3613L76.34 114.735L74.3613 117.826H74.3327L76.34 129.368L75.7904 137.613L66.4468 140.361V130.468L68.9751 117.826H68.9201L66.4468 114.735L68.9201 107.933Z" fill="#89A0E1"/>
<path d="M70.2967 145.857L57.1056 105.735C42.795 110.845 34.8213 119.125 32.7424 123.501C24.8849 137.954 24.6779 159.048 27.426 178.834H51.0598H48.3116H79.6401H79.3784H108.221L110.969 125.521C109.686 121.49 104.373 112.88 86.2356 106.834L70.2967 145.857Z" fill="#B5CAFF"/>
<path d="M90.1335 110.131L92.2831 129.918L79.9584 139.891" stroke="#8CA5EA" stroke-width="2.75162" stroke-linecap="round"/>
<path d="M53.3077 109.032L51.1091 129.918L60.7299 140.41" stroke="#8CA5EA" stroke-width="2.75162" stroke-linecap="round"/>
<path d="M81.1067 121.464L46.6621 127.525L53.2759 165.111L87.7205 159.05L81.1067 121.464Z" fill="#E7ECFF"/>
<rect x="56.5104" y="125.037" width="16.0041" height="3.69325" transform="rotate(-8.41167 56.5104 125.037)" fill="#BCC9FA"/>
<path d="M109.318 122.223L101.622 131.012L93.0089 133.209C93.9659 137.237 93.6979 147.161 89.5637 150.237C85.4294 153.313 70.0406 153.35 63.1501 153.533V173.307C67.7312 173.305 79.5422 173.853 78.6537 173.856C125.258 177.735 129.655 150.237 109.318 122.223Z" fill="#B5CAFF"/>
<path d="M85.6869 39.23H64.8013L45.0148 41.9782L49.9614 30.9857L71.9464 27.688L85.6869 39.23Z" fill="#45404F"/>
<path d="M63.5266 38.6675C58.8725 35.0539 54.691 32.122 50.5096 39.2304C49.7102 40.5894 48.9471 41.9629 48.2039 43.3007C44.859 49.3214 43.5644 57.9174 39.5171 57.9174L45.0133 29.8866L59.8531 21.6422H63.9295L82.9373 19.9934L98.3268 29.8866L104.922 49.3129H106.003L108.22 51.8715C105.105 53.7036 95.6886 54.2899 82.9373 41.9784C71.2879 30.7307 66.0915 34.2238 64.5819 38.1245L64.2501 39.2304C64.1593 39.1598 64.0687 39.0893 63.9783 39.0189C63.962 39.0062 63.9457 38.9935 63.9295 38.9808C63.7948 38.876 63.6605 38.7715 63.5266 38.6675Z" fill="#5E5A65"/>
<path d="M104.973 117.277L97.8275 123.872L99.4764 132.117C99.6596 137.43 103.544 150.914 117.614 162.346C127.727 142.12 113.4 123.872 104.973 117.277Z" fill="#B5CAFF"/>
</g>
</svg>
