<svg width="18" height="18" viewBox="0 0 18 18" fill="none" xmlns="http://www.w3.org/2000/svg">
<rect x="0.8" y="0.8" width="16.4" height="16.4" rx="8.2" stroke="#CED5EC" stroke-width="1.6"/>
<path d="M11.4436 6.89C11.4436 7.11 11.4136 7.31333 11.3536 7.5C11.2936 7.68667 11.2136 7.86 11.1136 8.02C11.0136 8.18 10.8969 8.32667 10.7636 8.46C10.6369 8.59333 10.5036 8.72 10.3636 8.84C10.0702 9.08 9.83689 9.29667 9.66355 9.49C9.49689 9.67667 9.41355 9.90333 9.41355 10.17V10.69H8.09355V10.17C8.09355 9.96333 8.12022 9.77333 8.17355 9.6C8.23355 9.42 8.31022 9.25667 8.40355 9.11C8.50355 8.95667 8.61689 8.81667 8.74355 8.69C8.87022 8.55667 9.00355 8.43333 9.14355 8.32C9.27689 8.21333 9.40022 8.10667 9.51355 8C9.63355 7.89333 9.73689 7.78333 9.82355 7.67C9.91022 7.55667 9.97689 7.43667 10.0236 7.31C10.0769 7.18333 10.1036 7.04333 10.1036 6.89C10.1036 6.51667 10.0036 6.22667 9.80355 6.02C9.61022 5.81333 9.30689 5.71 8.89355 5.71C8.54689 5.71 8.26689 5.84667 8.05355 6.12C7.84022 6.39333 7.73355 6.74667 7.73355 7.18H6.39355C6.39355 6.82 6.45689 6.48333 6.58355 6.17C6.71022 5.85 6.88355 5.57333 7.10355 5.34C7.33022 5.1 7.59355 4.91333 7.89355 4.78C8.20022 4.64 8.53355 4.57 8.89355 4.57C9.34022 4.57 9.72355 4.63333 10.0436 4.76C10.3702 4.88 10.6369 5.04667 10.8436 5.26C11.0502 5.46667 11.2002 5.71 11.2936 5.99C11.3936 6.27 11.4436 6.57 11.4436 6.89ZM9.66355 12.33C9.66355 12.5767 9.58022 12.7867 9.41355 12.96C9.24689 13.14 9.02689 13.23 8.75355 13.23C8.48022 13.23 8.26022 13.14 8.09355 12.96C7.92689 12.7867 7.84355 12.5767 7.84355 12.33C7.84355 12.0833 7.92689 11.8733 8.09355 11.7C8.26022 11.52 8.48022 11.43 8.75355 11.43C9.02689 11.43 9.24689 11.52 9.41355 11.7C9.58022 11.8733 9.66355 12.0833 9.66355 12.33Z" fill="#CED5EC"/>
</svg>
